HIERARCHY
ROOT Hips
{
	OFFSET 0.000000 0.000000 0.000000
	CHANNELS 6 Xposition Yposition Zposition Zrotation Yrotation Xrotation 
	JOINT LHipJoint
	{
		OFFSET 0.000000 0.000000 0.000000
		CHANNELS 3 Zrotation Yrotation Xrotation
		JOINT LeftUpLeg
		{
			OFFSET 1.363060 -1.794630 0.839290
			CHANNELS 3 Zrotation Yrotation Xrotation
			JOINT LeftLeg
			{
				OFFSET 2.448110 -6.726130 0.000000
				CHANNELS 3 Zrotation Yrotation Xrotation
				JOINT LeftFoot
				{
					OFFSET 2.562200 -7.039590 0.000000
					CHANNELS 3 Zrotation Yrotation Xrotation
					JOINT LeftToeBase
					{
						OFFSET 0.157640 -0.433110 2.322550
						CHANNELS 3 Zrotation Yrotation Xrotation
						End Site
						{
							OFFSET 0.000000 0.000000 0.000000
						}
					}
				}
			}
		}
	}
	JOINT RHipJoint
	{
		OFFSET 0.000000 0.000000 0.000000
		CHANNELS 3 Zrotation Yrotation Xrotation
		JOINT RightUpLeg
		{
			OFFSET -1.305520 -1.794630 0.839290
			CHANNELS 3 Zrotation Yrotation Xrotation
			JOINT RightLeg
			{
				OFFSET -2.542530 -6.985550 0.000000
				CHANNELS 3 Zrotation Yrotation Xrotation
				JOINT RightFoot
				{
					OFFSET -2.568260 -7.056230 0.000000
					CHANNELS 3 Zrotation Yrotation Xrotation
					JOINT RightToeBase
					{
						OFFSET -0.164730 -0.452590 2.363150
						CHANNELS 3 Zrotation Yrotation Xrotation
						End Site
						{
							OFFSET 0.000000 0.000000 0.000000
						}
					}
				}
			}
		}
	}
	JOINT LowerBack
	{
		OFFSET 0.000000 0.000000 0.000000
		CHANNELS 3 Zrotation Yrotation Xrotation
		JOINT Spine
		{
			OFFSET 0.028270 2.035590 -0.193380
			CHANNELS 3 Zrotation Yrotation Xrotation
			JOINT Spine1
			{
				OFFSET 0.056720 2.048850 -0.042750
				CHANNELS 3 Zrotation Yrotation Xrotation
				JOINT Neck
				{
					OFFSET 0.000000 0.000000 0.000000
					CHANNELS 3 Zrotation Yrotation Xrotation
					JOINT Neck1
					{
						OFFSET -0.054170 1.746240 0.172020
						CHANNELS 3 Zrotation Yrotation Xrotation
						JOINT Head
						{
							OFFSET 0.104070 1.761360 -0.123970
							CHANNELS 3 Zrotation Yrotation Xrotation
							End Site
							{
								OFFSET 0.000000 0.000000 0.000000
							}
						}
					}
				}
				JOINT LeftShoulder
				{
					OFFSET 0.000000 0.000000 0.000000
					CHANNELS 3 Zrotation Yrotation Xrotation
					JOINT LeftArm
					{
						OFFSET 3.362410 1.200890 -0.311210
						CHANNELS 3 Zrotation Yrotation Xrotation
						JOINT LeftForeArm
						{
							OFFSET 4.983000 -0.000000 -0.000000
							CHANNELS 3 Zrotation Yrotation Xrotation
							JOINT LeftHand
							{
								OFFSET 3.483560 -0.000000 -0.000000
								CHANNELS 3 Zrotation Yrotation Xrotation
								JOINT LeftFingerBase
								{
									OFFSET 0.000000 0.000000 0.000000
									CHANNELS 3 Zrotation Yrotation Xrotation
									JOINT LeftHandIndex1
									{
										OFFSET 0.715260 -0.000000 -0.000000
										CHANNELS 3 Zrotation Yrotation Xrotation
										End Site
										{
											OFFSET 0.000000 0.000000 0.000000
										}
									}
								}
								JOINT LThumb
								{
									OFFSET 0.000000 0.000000 0.000000
									CHANNELS 3 Zrotation Yrotation Xrotation
									End Site
									{
										OFFSET 0.000000 0.000000 0.000000
									}
								}
							}
						}
					}
				}
				JOINT RightShoulder
				{
					OFFSET 0.000000 0.000000 0.000000
					CHANNELS 3 Zrotation Yrotation Xrotation
					JOINT RightArm
					{
						OFFSET -3.136600 1.374050 -0.404650
						CHANNELS 3 Zrotation Yrotation Xrotation
						JOINT RightForeArm
						{
							OFFSET -5.241900 -0.000000 -0.000000
							CHANNELS 3 Zrotation Yrotation Xrotation
							JOINT RightHand
							{
								OFFSET -3.444170 -0.000000 -0.000000
								CHANNELS 3 Zrotation Yrotation Xrotation
								JOINT RightFingerBase
								{
									OFFSET 0.000000 0.000000 0.000000
									CHANNELS 3 Zrotation Yrotation Xrotation
									JOINT RightHandIndex1
									{
										OFFSET -0.622530 -0.000000 -0.000000
										CHANNELS 3 Zrotation Yrotation Xrotation
										End Site
										{
											OFFSET 0.000000 0.000000 0.000000
										}
									}
								}
								JOINT RThumb
								{
									OFFSET 0.000000 0.000000 0.000000
									CHANNELS 3 Zrotation Yrotation Xrotation
									End Site
									{
										OFFSET 0.000000 0.000000 0.000000
									}
								}
							}
						}
					}
				}
			}
		}
	}
}
MOTION
Frames: 12
Frame Time: 0.033333
-1.727593 16.379112 23.743818 2.975065 3.175248 8.150044 -4.270764 13.533182 -2.447237 -21.717365 -4.682358 -9.397896 -14.031346 -8.372865 -21.998133 1.860880 14.202286 30.839330 0.000000 0.000000 0.000000 10.725073 -8.934965 5.750010 2.725151 5.930101 -10.952179 -2.057993 -19.599655 48.286254 13.287217 -21.783317 10.602403 0.000000 0.000000 0.000000 -3.522194 -0.689119 2.489958 3.447619 -1.589865 12.625567 0.368861 -0.215674 -12.449311 4.882200 -0.703932 -8.170929 -1.630316 -0.130858 -0.929827 0.000000 0.000000 0.000000 -0.908796 11.564214 9.220138 -68.843350 -3.247782 21.819956 -23.046651 -72.164590 0.588930 0.131607 -13.240473 0.291470 0.142149 -13.248429 0.000000 0.000000 0.000000 0.000000 0.000000 0.000000 0.000000 -3.629564 -13.846376 8.199701 64.433463 4.327777 17.707393 21.412272 69.669151 0.303063 -0.359355 10.824557 0.149975 -0.373430 10.827496 0.000000 0.000000 0.000000 0.000000 0.000000 0.000000 0.000000 
-1.739225 16.406547 23.944040 3.323285 3.047985 8.181595 -3.853803 13.719596 -2.648259 -22.684110 -4.649543 -8.920674 -13.416773 -7.933968 -20.446743 1.374321 12.518626 27.432471 0.000000 0.000000 0.000000 10.663425 -9.075166 6.071476 2.402481 5.807614 -10.871785 -2.163206 -19.424574 47.895567 13.604420 -23.391456 12.812899 0.000000 0.000000 0.000000 -3.577194 -0.666349 2.372215 3.008740 -1.596950 12.723840 0.471779 -0.267701 -12.313220 4.880874 -0.703627 -8.110658 -1.604109 -0.127260 -0.943880 0.000000 0.000000 0.000000 -0.794191 11.415760 9.211063 -68.848235 -3.343894 21.782682 -22.512040 -72.598259 0.581348 0.274183 -13.379090 0.287473 0.287359 -13.386608 0.000000 0.000000 0.000000 0.000000 0.000000 0.000000 0.000000 -3.649536 -13.766259 8.144963 64.595867 4.333166 17.819198 21.112047 70.178448 0.308043 -0.394290 10.953107 0.152400 -0.408904 10.956037 0.000000 0.000000 0.000000 0.000000 0.000000 0.000000 0.000000 
-1.750208 16.435815 24.141324 3.649663 2.920472 8.214017 -3.491665 13.911922 -2.856896 -23.585558 -4.631816 -8.511897 -12.765529 -7.458842 -18.816336 0.966488 10.874582 24.134311 0.000000 0.000000 0.000000 10.638617 -9.217506 6.399348 2.058502 5.666169 -10.802287 -2.266887 -19.238458 47.458234 13.849789 -24.981167 14.963868 0.000000 0.000000 0.000000 -3.637116 -0.649644 2.262594 2.610159 -1.605513 12.808146 0.567751 -0.317694 -12.183946 4.883029 -0.704012 -8.059935 -1.582654 -0.124257 -0.956193 0.000000 0.000000 0.000000 -0.684751 11.275507 9.203378 -68.855560 -3.434424 21.738263 -22.010824 -72.997446 0.573770 0.409511 -13.506288 0.283483 0.425253 -13.513350 0.000000 0.000000 0.000000 0.000000 0.000000 0.000000 0.000000 -3.673950 -13.689026 8.094543 64.750348 4.338769 17.918892 20.826918 70.651513 0.312612 -0.428305 11.072415 0.154621 -0.443447 11.075329 0.000000 0.000000 0.000000 0.000000 0.000000 0.000000 0.000000 
-1.759327 16.466396 24.334939 3.951849 2.793068 8.248143 -3.187353 14.110200 -3.069477 -24.412656 -4.627638 -8.173287 -12.102094 -6.950329 -17.124713 0.630356 9.298044 20.982251 0.000000 0.000000 0.000000 10.648886 -9.361302 6.732417 1.696198 5.509881 -10.745078 -2.372265 -19.042533 46.984399 14.014714 -26.529718 17.040606 0.000000 0.000000 0.000000 -3.699417 -0.639211 2.159709 2.251498 -1.615848 12.879301 0.656935 -0.365709 -12.061597 4.888757 -0.705120 -8.018734 -1.566120 -0.121845 -0.967292 0.000000 0.000000 0.000000 -0.580714 11.143460 9.196920 -68.865298 -3.519184 21.688364 -21.543565 -73.363508 0.566288 0.537102 -13.622491 0.279549 0.555324 -13.629088 0.000000 0.000000 0.000000 0.000000 0.000000 0.000000 0.000000 -3.702573 -13.614610 8.048593 64.896826 4.344677 18.007088 20.557781 71.089029 0.316778 -0.461168 11.182600 0.156644 -0.476821 11.185493 0.000000 0.000000 0.000000 0.000000 0.000000 0.000000 0.000000 
-1.766608 16.497743 24.524157 4.228467 2.664561 8.284688 -2.940125 14.311680 -3.282286 -25.160772 -4.636073 -7.902186 -11.434749 -6.416951 -15.396005 0.357654 7.807668 18.006744 0.000000 0.000000 0.000000 10.691730 -9.504872 7.068436 1.319651 5.343230 -10.699876 -2.475797 -18.838903 46.483739 14.097463 -28.018100 19.028651 0.000000 0.000000 0.000000 -3.763433 -0.634711 2.062666 1.933139 -1.627853 12.937696 0.739457 -0.411421 -11.946510 4.898378 -0.706996 -7.987383 -1.554799 -0.120034 -0.977700 0.000000 0.000000 0.000000 -0.482452 11.020008 9.191581 -68.877526 -3.597733 21.634617 -21.112064 -73.696660 0.559007 0.656146 -13.727765 0.275725 0.676732 -13.733897 0.000000 0.000000 0.000000 0.000000 0.000000 0.000000 0.000000 -3.735213 -13.542941 8.007438 65.034917 4.350968 18.084066 20.306208 71.490398 0.320536 -0.492562 11.283459 0.158466 -0.508706 11.286328 0.000000 0.000000 0.000000 0.000000 0.000000 0.000000 0.000000 
-1.771653 16.529429 24.708367 4.478547 2.533548 8.324253 -2.748779 14.513335 -3.491902 -25.825609 -4.656441 -7.696053 -10.776368 -5.865057 -13.649865 0.140255 6.417931 15.226460 0.000000 0.000000 0.000000 10.763731 -9.646461 7.405394 0.933056 5.170957 -10.666495 -2.576726 -18.628824 45.965498 14.097117 -29.428982 20.921222 0.000000 0.000000 0.000000 -3.827693 -0.635563 1.970335 1.654446 -1.641270 12.984182 0.814974 -0.454484 -11.839823 4.911139 -0.709480 -7.964768 -1.548113 -0.118756 -0.987498 0.000000 0.000000 0.000000 -0.391100 10.906155 9.187310 -68.891539 -3.669459 21.579214 -20.719644 -73.995742 0.552071 0.765420 -13.821826 0.272086 0.788218 -13.827504 0.000000 0.000000 0.000000 0.000000 0.000000 0.000000 0.000000 -3.770327 -13.475172 7.971185 65.163017 4.357415 18.150167 20.074834 71.853392 0.323875 -0.522018 11.374462 0.160081 -0.538625 11.377305 0.000000 0.000000 0.000000 0.000000 0.000000 0.000000 0.000000 
-1.773897 16.560995 24.887478 4.701759 2.398499 8.367032 -2.609611 14.710411 -3.697197 -26.405380 -4.685857 -7.547882 -10.140986 -5.299613 -11.903289 -0.029601 5.136846 12.644249 0.000000 0.000000 0.000000 10.862033 -9.782975 7.742229 0.538774 4.996773 -10.643399 -2.674988 -18.413894 45.437134 14.015324 -30.749365 22.717704 0.000000 0.000000 0.000000 -3.893084 -0.641370 1.882687 1.416361 -1.655886 13.018814 0.883610 -0.494454 -11.742096 4.927481 -0.712620 -7.951427 -1.546426 -0.118035 -0.997171 0.000000 0.000000 0.000000 -0.307173 10.802530 9.184055 -68.907488 -3.733702 21.523834 -20.369100 -74.260009 0.545601 0.863843 -13.904468 0.268695 0.888669 -13.909714 0.000000 0.000000 0.000000 0.000000 0.000000 0.000000 0.000000 -3.807698 -13.411366 7.940287 65.280441 4.364034 18.205463 19.865834 72.176352 0.326781 -0.549132 11.455153 0.161485 -0.566167 11.457968 0.000000 0.000000 0.000000 0.000000 0.000000 0.000000 0.000000 
-1.773796 16.592109 25.060992 4.898353 2.257184 8.413160 -2.518282 14.898049 -3.895988 -26.900875 -4.723307 -7.451523 -9.529667 -4.728973 -10.176492 -0.159250 3.968341 10.265422 0.000000 0.000000 0.000000 10.982919 -9.911954 8.076654 0.141132 4.824880 -10.629038 -2.766912 -18.195434 44.905770 13.858017 -31.969473 24.416402 0.000000 0.000000 0.000000 -3.959691 -0.651290 1.799230 1.217807 -1.671188 13.042131 0.945671 -0.530872 -11.653301 4.947549 -0.716417 -7.947315 -1.549769 -0.117860 -1.007103 0.000000 0.000000 0.000000 -0.230742 10.709290 9.181710 -68.925370 -3.790264 21.469795 -20.060619 -74.490533 0.539672 0.951082 -13.976077 0.265589 0.977732 -13.980921 0.000000 0.000000 0.000000 0.000000 0.000000 0.000000 0.000000 -3.847061 -13.351240 7.914872 65.387166 4.370863 18.250547 19.679837 72.459875 0.329263 -0.573701 11.525667 0.162682 -0.591124 11.528453 0.000000 0.000000 0.000000 0.000000 0.000000 0.000000 0.000000 
-1.771735 16.622451 25.228981 5.069165 2.107556 8.462511 -2.468458 15.070502 -4.088545 -27.315662 -4.765461 -7.397010 -8.943474 -4.159833 -8.486019 -0.255400 2.910969 8.082634 0.000000 0.000000 0.000000 11.123950 -10.030045 8.407571 -0.257750 4.657963 -10.620835 -2.849646 -17.974721 44.376156 13.633039 -33.085363 26.020599 0.000000 0.000000 0.000000 -4.030264 -0.664749 1.720664 1.060500 -1.686836 13.053758 1.001258 -0.563167 -11.574244 4.971957 -0.720924 -7.953273 -1.558613 -0.118268 -1.017738 0.000000 0.000000 0.000000 -0.162461 10.627332 9.180291 -68.945428 -3.838272 21.418723 -19.798184 -74.685437 0.534416 1.025754 -14.036095 0.262839 1.053989 -14.040582 0.000000 0.000000 0.000000 0.000000 0.000000 0.000000 0.000000 -3.888224 -13.294993 7.895528 65.482189 4.377866 18.285175 19.519652 72.701069 0.331296 -0.595248 11.585243 0.163661 -0.613014 11.588002 0.000000 0.000000 0.000000 0.000000 0.000000 0.000000 0.000000 
-1.767912 16.652172 25.392100 5.218659 1.950036 8.515583 -2.460022 15.235585 -4.268737 -27.657455 -4.822327 -7.392273 -8.378324 -3.589558 -6.814650 -0.325362 1.950904 6.071773 0.000000 0.000000 0.000000 11.275595 -10.144094 8.735115 -0.650527 4.502601 -10.620932 -2.925518 -17.747665 43.854018 13.347409 -34.105789 27.546688 0.000000 0.000000 0.000000 -4.091648 -0.679986 1.639952 0.918607 -1.701919 13.060245 1.054987 -0.593259 -11.494314 4.999942 -0.726223 -7.965429 -1.571348 -0.119050 -1.029569 0.000000 0.000000 0.000000 -0.093811 10.546950 9.178726 -68.967980 -3.884973 21.364691 -19.539790 -74.876220 0.529081 1.099680 -14.094420 0.260050 1.129502 -14.098540 0.000000 0.000000 0.000000 0.000000 0.000000 0.000000 0.000000 -3.934626 -13.234686 7.878283 65.578737 4.386356 18.316760 19.360367 72.938100 0.333242 -0.616982 11.643496 0.164596 -0.635093 11.646224 0.000000 0.000000 0.000000 0.000000 0.000000 0.000000 0.000000 
-1.762725 16.681162 25.550533 5.347898 1.783502 8.572328 -2.488446 15.388997 -4.436784 -27.929716 -4.891987 -7.430336 -7.832857 -3.022589 -5.172044 -0.373753 1.084721 4.224213 0.000000 0.000000 0.000000 11.436514 -10.251205 9.058651 -1.036148 4.360490 -10.627033 -2.992480 -17.514369 43.341497 13.008261 -35.030975 29.000393 0.000000 0.000000 0.000000 -4.145827 -0.696599 1.557536 0.792662 -1.716175 13.061251 1.107148 -0.620861 -11.413428 5.032106 -0.732399 -7.984517 -1.588399 -0.120241 -1.042885 0.000000 0.000000 0.000000 -0.024635 10.468207 9.177013 -68.993350 -3.930240 21.307665 -19.285924 -75.062670 0.523678 1.172704 -14.150949 0.257227 1.204110 -14.154696 0.000000 0.000000 0.000000 0.000000 0.000000 0.000000 0.000000 -3.986696 -13.169887 7.863345 65.676965 4.396462 18.345060 19.202263 73.170644 0.335094 -0.638869 11.700306 0.165483 -0.657328 11.703001 0.000000 0.000000 0.000000 0.000000 0.000000 0.000000 0.000000 
-1.756728 16.709385 25.704813 5.458592 1.607210 8.632793 -2.549372 15.527932 -4.593120 -28.137649 -4.973395 -7.505170 -7.302485 -2.461964 -3.562002 -0.404748 0.305376 2.526108 0.000000 0.000000 0.000000 11.605528 -10.349529 9.378340 -1.413886 4.233175 -10.637035 -3.048531 -17.273808 42.839568 12.623435 -35.866032 30.389633 0.000000 0.000000 0.000000 -4.194258 -0.714147 1.473447 0.681947 -1.729392 13.056832 1.157987 -0.645871 -11.331577 5.068535 -0.739444 -8.010487 -1.609737 -0.121840 -1.057770 0.000000 0.000000 0.000000 0.045117 10.391100 9.175159 -69.021519 -3.974096 21.247743 -19.036598 -75.244870 0.518212 1.244803 -14.205711 0.254374 1.277790 -14.209076 0.000000 0.000000 0.000000 0.000000 0.000000 0.000000 0.000000 -4.044321 -13.100585 7.850699 65.776836 4.408181 18.370079 19.045418 73.398747 0.336850 -0.660890 11.755681 0.166323 -0.679702 11.758342 0.000000 0.000000 0.000000 0.000000 0.000000 0.000000 0.000000 
